<svg width="42.000000" height="42.000000" viewBox="0 0 42 42" fill="none" xmlns="http://www.w3.org/2000/svg" xmlns:xlink="http://www.w3.org/1999/xlink">
	<desc>
			Created with Pixso.
	</desc>
	<defs>
		<clipPath id="clip55_80">
			<rect id="Facebook" width="22.000000" height="22.000000" transform="translate(10.000000 10.000000)" fill="white" fill-opacity="0"/>
		</clipPath>
		<clipPath id="clip55_56">
			<rect id="Frame 4" width="42.000000" height="42.000000" fill="white" fill-opacity="0"/>
		</clipPath>
	</defs>
	<g clip-path="url(#clip55_56)">
		<circle id="Oval 2" cx="21.000000" cy="21.000000" r="20.000000" stroke="#FFFFFF" stroke-opacity="1.000000" stroke-width="2.000000"/>
		<g clip-path="url(#clip55_80)">
			<path id="path" d="M26.5 15.77L24.32 15.77L23.74 15.77C23.24 15.77 22.84 16.17 22.84 16.67L22.84 19.83L26.5 19.83L25.96 23.32L22.84 23.32L22.84 29.7L18.82 29.7L18.82 23.32L15.5 23.32L15.5 19.83L18.77 19.83L18.82 16.53L18.81 15.93C18.79 13.94 20.39 12.31 22.38 12.29L26.5 12.29L26.5 15.77Z" fill="#FFFFFF" fill-opacity="1.000000" fill-rule="nonzero"/>
			<path id="path" d="M24.32 15.77L23.74 15.77C23.24 15.77 22.84 16.17 22.84 16.67L22.84 19.83L26.5 19.83L25.96 23.32L22.84 23.32L22.84 29.7L18.82 29.7L18.82 23.32L15.5 23.32L15.5 19.83L18.77 19.83L18.82 16.53L18.81 15.93C18.79 13.94 20.39 12.31 22.38 12.29L26.5 12.29L26.5 15.77L24.32 15.77Z" stroke="#FFFFFF" stroke-opacity="1.000000" stroke-width="1.375000" stroke-linejoin="round"/>
		</g>
	</g>
</svg>
