<svg width="36.000000" height="36.000000" viewBox="0 0 36 36" fill="none" xmlns="http://www.w3.org/2000/svg" xmlns:xlink="http://www.w3.org/1999/xlink">
	<desc>
			Created with Pixso.
	</desc>
	<defs>
		<clipPath id="clip5_30">
			<rect id="Facebook" width="36.000000" height="36.000000" fill="white" fill-opacity="0"/>
		</clipPath>
	</defs>
	<g clip-path="url(#clip5_30)">
		<path id="path" d="M27 9.44L23.43 9.44L22.49 9.44C21.67 9.44 21.01 10.11 21.01 10.92L21.01 16.1L27 16.1L26.12 21.79L21.01 21.79L21.01 32.25L14.43 32.25L14.43 21.79L9 21.79L9 16.1L14.36 16.1L14.43 10.69L14.42 9.71C14.39 6.45 17 3.78 20.26 3.75L27 3.75L27 9.44Z" fill="#FFFFFF" fill-opacity="1.000000" fill-rule="nonzero"/>
		<path id="path" d="M23.43 9.44L22.49 9.44C21.67 9.44 21.01 10.11 21.01 10.92L21.01 16.1L27 16.1L26.12 21.79L21.01 21.79L21.01 32.25L14.43 32.25L14.43 21.79L9 21.79L9 16.1L14.36 16.1L14.43 10.69L14.42 9.71C14.39 6.45 17 3.78 20.26 3.75L27 3.75L27 9.44L23.43 9.44Z" stroke="#FFFFFF" stroke-opacity="1.000000" stroke-width="2.250000" stroke-linejoin="round"/>
	</g>
</svg>
