<svg width="42.000000" height="42.000000" viewBox="0 0 42 42" fill="none" xmlns="http://www.w3.org/2000/svg" xmlns:xlink="http://www.w3.org/1999/xlink">
	<desc>
			Created with Pixso.
	</desc>
	<defs>
		<clipPath id="clip55_88">
			<rect id="instagram" width="22.000000" height="22.000000" transform="translate(10.000000 10.000000)" fill="white" fill-opacity="0"/>
		</clipPath>
		<clipPath id="clip55_33">
			<rect id="Frame 4" width="42.000000" height="42.000000" fill="white" fill-opacity="0"/>
		</clipPath>
	</defs>
	<g clip-path="url(#clip55_33)">
		<circle id="Oval 2" cx="21.000000" cy="21.000000" r="20.000000" stroke="#FFFFFF" stroke-opacity="1.000000" stroke-width="2.000000"/>
		<g clip-path="url(#clip55_88)">
			<path id="path" d="M25.58 12.75L16.41 12.75C14.39 12.75 12.75 14.39 12.75 16.41L12.75 25.58C12.75 27.6 14.39 29.25 16.41 29.25L25.58 29.25C27.6 29.25 29.25 27.6 29.25 25.58L29.25 16.41C29.25 14.39 27.6 12.75 25.58 12.75Z" fill="#000000" fill-opacity="0" fill-rule="nonzero"/>
			<path id="path" d="M16.41 12.75C14.39 12.75 12.75 14.39 12.75 16.41L12.75 25.58C12.75 27.6 14.39 29.25 16.41 29.25L25.58 29.25C27.6 29.25 29.25 27.6 29.25 25.58L29.25 16.41C29.25 14.39 27.6 12.75 25.58 12.75L16.41 12.75Z" stroke="#FFFFFF" stroke-opacity="1.000000" stroke-width="2.000000" stroke-linejoin="round"/>
			<path id="path" d="M21 24.66C23.02 24.66 24.66 23.02 24.66 21C24.66 18.97 23.02 17.33 21 17.33C18.97 17.33 17.33 18.97 17.33 21C17.33 23.02 18.97 24.66 21 24.66Z" fill="#000000" fill-opacity="0" fill-rule="nonzero"/>
			<path id="path" d="M24.66 21C24.66 18.97 23.02 17.33 21 17.33C18.97 17.33 17.33 18.97 17.33 21C17.33 23.02 18.97 24.66 21 24.66C23.02 24.66 24.66 23.02 24.66 21Z" stroke="#FFFFFF" stroke-opacity="1.000000" stroke-width="2.000000" stroke-linejoin="round"/>
			<path id="path" d="M26.04 16.87C26.54 16.87 26.95 16.46 26.95 15.95C26.95 15.45 26.54 15.04 26.04 15.04C25.53 15.04 25.12 15.45 25.12 15.95C25.12 16.46 25.53 16.87 26.04 16.87Z" fill="#FFFFFF" fill-opacity="1.000000" fill-rule="nonzero"/>
		</g>
	</g>
</svg>
