<svg width="36.000000" height="36.000000" viewBox="0 0 36 36" fill="none" xmlns="http://www.w3.org/2000/svg" xmlns:xlink="http://www.w3.org/1999/xlink">
	<desc>
			Created with Pixso.
	</desc>
	<defs>
		<clipPath id="clip5_24">
			<rect id="instagram" width="36.000000" height="36.000000" fill="white" fill-opacity="0"/>
		</clipPath>
	</defs>
	<g clip-path="url(#clip5_24)">
		<path id="path" d="M25.5 4.5L10.5 4.5C7.18 4.5 4.5 7.18 4.5 10.5L4.5 25.5C4.5 28.81 7.18 31.5 10.5 31.5L25.5 31.5C28.81 31.5 31.5 28.81 31.5 25.5L31.5 10.5C31.5 7.18 28.81 4.5 25.5 4.5Z" fill="#F30000" fill-opacity="0" fill-rule="nonzero"/>
		<path id="path" d="M10.5 4.5C7.18 4.5 4.5 7.18 4.5 10.5L4.5 25.5C4.5 28.81 7.18 31.5 10.5 31.5L25.5 31.5C28.81 31.5 31.5 28.81 31.5 25.5L31.5 10.5C31.5 7.18 28.81 4.5 25.5 4.5L10.5 4.5Z" stroke="#FFFFFF" stroke-opacity="1.000000" stroke-width="2.250000" stroke-linejoin="round"/>
		<path id="path" d="M18 24C21.31 24 24 21.31 24 18C24 14.68 21.31 12 18 12C14.68 12 12 14.68 12 18C12 21.31 14.68 24 18 24Z" fill="#F30000" fill-opacity="0" fill-rule="nonzero"/>
		<path id="path" d="M24 18C24 14.68 21.31 12 18 12C14.68 12 12 14.68 12 18C12 21.31 14.68 24 18 24C21.31 24 24 21.31 24 18Z" stroke="#FFFFFF" stroke-opacity="1.000000" stroke-width="2.250000" stroke-linejoin="round"/>
		<path id="path" d="M26.25 11.25C27.07 11.25 27.75 10.57 27.75 9.75C27.75 8.92 27.07 8.25 26.25 8.25C25.42 8.25 24.75 8.92 24.75 9.75C24.75 10.57 25.42 11.25 26.25 11.25Z" fill="#FFFFFF" fill-opacity="1.000000" fill-rule="nonzero"/>
	</g>
</svg>
