<svg width="42.000000" height="42.000000" viewBox="0 0 42 42" fill="none" xmlns="http://www.w3.org/2000/svg" xmlns:xlink="http://www.w3.org/1999/xlink">
	<desc>
			Created with Pixso.
	</desc>
	<defs>
		<clipPath id="clip55_76">
			<rect id="instagram" width="22.000000" height="22.000000" transform="translate(10.000000 10.000000)" fill="white" fill-opacity="0"/>
		</clipPath>
		<clipPath id="clip55_54">
			<rect id="Frame 4" width="42.000000" height="42.000000" fill="white" fill-opacity="0"/>
		</clipPath>
	</defs>
	<g clip-path="url(#clip55_54)">
		<circle id="Oval 2" cx="21.000000" cy="21.000000" r="20.000000" stroke="#FFFFFF" stroke-opacity="1.000000" stroke-width="2.000000"/>
		<g clip-path="url(#clip55_76)">
			<circle id="circle" cx="14.125000" cy="13.666687" r="1.833333" fill="#FFFFFF" fill-opacity="1.000000"/>
			<circle id="circle" cx="14.125000" cy="13.666687" r="1.833333" stroke="#FFFFFF" stroke-opacity="1.000000" stroke-width="1.375000"/>
			<rect id="rect" x="12.291504" y="18.250061" width="3.666667" height="11.458334" fill="#FFFFFF" fill-opacity="1.000000"/>
			<rect id="rect" x="12.291504" y="18.250061" width="3.666667" height="11.458334" stroke="#FFFFFF" stroke-opacity="1.000000" stroke-width="1.375000" stroke-linejoin="round"/>
			<path id="path" d="M19.62 22.6L19.62 29.7L22.83 29.7L22.83 23.29C22.83 22.14 23.52 21.22 24.66 21.22C25.81 21.22 26.5 22.37 26.5 23.29L26.5 29.7L29.7 29.7L29.7 22.6C29.7 21.22 28.1 18.25 24.66 18.25C21.22 18.25 19.62 21.22 19.62 22.6Z" fill="#FFFFFF" fill-opacity="1.000000" fill-rule="nonzero"/>
			<path id="path" d="M19.62 29.7L22.83 29.7L22.83 23.29C22.83 22.14 23.52 21.22 24.66 21.22C25.81 21.22 26.5 22.37 26.5 23.29L26.5 29.7L29.7 29.7L29.7 22.6C29.7 21.22 28.1 18.25 24.66 18.25C21.22 18.25 19.62 21.22 19.62 22.6L19.62 29.7Z" stroke="#FFFFFF" stroke-opacity="1.000000" stroke-width="1.375000" stroke-linejoin="round"/>
		</g>
	</g>
</svg>
