<svg width="36.000000" height="36.000000" viewBox="0 0 36 36" fill="none" xmlns="http://www.w3.org/2000/svg" xmlns:xlink="http://www.w3.org/1999/xlink">
	<desc>
			Created with Pixso.
	</desc>
	<defs>
		<clipPath id="clip5_50">
			<rect id="LinkedinLogo" width="36.000000" height="36.000000" fill="white" fill-opacity="0"/>
		</clipPath>
	</defs>
	<g clip-path="url(#clip5_50)">
		<path id="path" d="M9.37 12.71L9.37 29.85C9.37 30.14 9.31 30.41 9.2 30.67C9.09 30.93 8.94 31.17 8.74 31.37C8.53 31.57 8.3 31.72 8.04 31.83C7.78 31.94 7.5 32 7.22 32C6.93 32 6.66 31.94 6.4 31.83C6.13 31.72 5.9 31.57 5.7 31.37C5.5 31.17 5.34 30.93 5.23 30.67C5.12 30.41 5.07 30.14 5.07 29.85L5.07 12.71C5.07 12.43 5.12 12.15 5.23 11.89C5.34 11.63 5.5 11.4 5.7 11.19C5.9 10.99 6.13 10.84 6.4 10.73C6.66 10.62 6.93 10.57 7.22 10.57C7.5 10.57 7.78 10.62 8.04 10.73C8.3 10.84 8.53 10.99 8.74 11.19C8.94 11.4 9.09 11.63 9.2 11.89C9.31 12.15 9.37 12.43 9.37 12.71ZM33 20.21L33 29.85C33 30.14 32.94 30.41 32.83 30.67C32.72 30.93 32.57 31.17 32.37 31.37C32.16 31.57 31.93 31.72 31.67 31.83C31.41 31.94 31.13 32 30.85 32C30.56 32 30.29 31.94 30.02 31.83C29.76 31.72 29.53 31.57 29.33 31.37C29.13 31.17 28.97 30.93 28.86 30.67C28.75 30.41 28.7 30.14 28.7 29.85L28.7 20.21C28.7 19.86 28.66 19.51 28.6 19.16C28.53 18.82 28.42 18.48 28.29 18.16C28.16 17.83 27.99 17.53 27.79 17.23C27.6 16.94 27.37 16.67 27.13 16.42C26.88 16.17 26.61 15.95 26.31 15.76C26.02 15.56 25.71 15.39 25.38 15.26C25.06 15.13 24.72 15.02 24.38 14.96C24.03 14.89 23.68 14.85 23.33 14.85C22.98 14.85 22.63 14.89 22.28 14.96C21.93 15.02 21.6 15.13 21.27 15.26C20.95 15.39 20.64 15.56 20.34 15.76C20.05 15.95 19.78 16.17 19.53 16.42C19.28 16.67 19.06 16.94 18.86 17.23C18.67 17.53 18.5 17.83 18.37 18.16C18.23 18.48 18.13 18.82 18.06 19.16C17.99 19.51 17.96 19.86 17.96 20.21L17.96 29.85C17.96 30.14 17.9 30.41 17.79 30.67C17.69 30.93 17.53 31.17 17.33 31.37C17.13 31.57 16.89 31.72 16.63 31.83C16.37 31.94 16.09 32 15.81 32C15.52 32 15.25 31.94 14.99 31.83C14.72 31.72 14.49 31.57 14.29 31.37C14.09 31.17 13.93 30.93 13.83 30.67C13.72 30.41 13.66 30.14 13.66 29.85L13.66 12.71C13.66 12.45 13.71 12.19 13.81 11.95C13.9 11.7 14.04 11.48 14.21 11.29C14.39 11.09 14.59 10.94 14.83 10.82C15.06 10.7 15.31 10.62 15.57 10.59C15.83 10.56 16.09 10.58 16.34 10.64C16.6 10.71 16.83 10.82 17.05 10.97C17.26 11.12 17.44 11.31 17.59 11.52C17.74 11.74 17.84 11.98 17.9 12.23C18.63 11.74 19.41 11.36 20.24 11.08C21.07 10.8 21.93 10.63 22.8 10.58C23.68 10.54 24.55 10.61 25.4 10.79C26.26 10.98 27.08 11.28 27.85 11.69C28.63 12.1 29.34 12.61 29.97 13.21C30.61 13.81 31.16 14.49 31.61 15.24C32.06 15.99 32.41 16.79 32.64 17.63C32.88 18.47 32.99 19.33 33 20.21ZM10.44 5.21C10.44 5.64 10.36 6.05 10.19 6.44C10.03 6.83 9.8 7.18 9.5 7.48C9.19 7.78 8.85 8.02 8.45 8.18C8.06 8.34 7.64 8.42 7.22 8.42C6.79 8.42 6.38 8.34 5.98 8.18C5.59 8.02 5.24 7.78 4.94 7.48C4.64 7.18 4.4 6.83 4.24 6.44C4.08 6.05 4 5.64 4 5.21C4 4.78 4.08 4.37 4.24 3.98C4.4 3.59 4.64 3.24 4.94 2.94C5.24 2.64 5.59 2.4 5.98 2.24C6.38 2.08 6.79 2 7.22 2C7.64 2 8.06 2.08 8.45 2.24C8.85 2.4 9.19 2.64 9.5 2.94C9.8 3.24 10.03 3.59 10.19 3.98C10.36 4.37 10.44 4.78 10.44 5.21Z" fill="#FFFFFF" fill-opacity="1.000000" fill-rule="nonzero"/>
	</g>
</svg>
