<svg width="42.000000" height="42.000000" viewBox="0 0 42 42" fill="none" xmlns="http://www.w3.org/2000/svg" xmlns:xlink="http://www.w3.org/1999/xlink">
	<desc>
			Created with Pixso.
	</desc>
	<defs>
		<clipPath id="clip55_82">
			<rect id="Twitter" width="22.000000" height="22.000000" transform="translate(10.000000 10.000000)" fill="white" fill-opacity="0"/>
		</clipPath>
		<clipPath id="clip55_44">
			<rect id="Frame 4" width="42.000000" height="42.000000" fill="white" fill-opacity="0"/>
		</clipPath>
	</defs>
	<g clip-path="url(#clip55_44)">
		<circle id="Oval 2" cx="21.000000" cy="21.000000" r="20.000000" stroke="#FFFFFF" stroke-opacity="1.000000" stroke-width="2.000000"/>
		<g clip-path="url(#clip55_82)">
			<path id="path" d="M12.29 26.39C13.17 26.87 19.57 30.56 24.12 27.72C28.67 24.88 28.42 19.98 28.42 17.73C28.83 16.87 29.7 16.43 29.7 14.09C28.85 14.88 28 15.15 27.15 14.9C26.32 13.64 25.19 13.08 23.74 13.23C21.56 13.44 20.76 15.58 21 18.34C17.64 20.04 15.01 17.11 13.66 14.9C13.21 16.64 12.77 18.73 13.66 21.04C14.25 22.58 15.68 23.88 17.94 24.95C15.65 26.19 13.76 26.67 12.29 26.39Z" fill="#FFFFFF" fill-opacity="1.000000" fill-rule="nonzero"/>
			<path id="path" d="M24.12 27.72C28.67 24.88 28.42 19.98 28.42 17.73C28.83 16.87 29.7 16.43 29.7 14.09C28.85 14.88 28 15.15 27.15 14.9C26.32 13.64 25.19 13.08 23.74 13.23C21.56 13.44 20.76 15.58 21 18.34C17.64 20.04 15.01 17.11 13.66 14.9C13.21 16.64 12.77 18.73 13.66 21.04C14.25 22.58 15.68 23.88 17.94 24.95C15.65 26.19 13.76 26.67 12.29 26.39C13.17 26.87 19.57 30.56 24.12 27.72Z" stroke="#FFFFFF" stroke-opacity="1.000000" stroke-width="1.375000" stroke-linejoin="round"/>
		</g>
	</g>
</svg>
