<svg width="36.000000" height="36.000000" viewBox="0 0 36 36" fill="none" xmlns="http://www.w3.org/2000/svg" xmlns:xlink="http://www.w3.org/1999/xlink">
	<desc>
			Created with Pixso.
	</desc>
	<defs>
		<clipPath id="clip5_32">
			<rect id="Twitter" width="36.000000" height="36.000000" fill="white" fill-opacity="0"/>
		</clipPath>
	</defs>
	<g clip-path="url(#clip5_32)">
		<path id="path" d="M3.75 26.82C5.19 27.62 15.66 33.65 23.11 29C30.56 24.35 30.15 16.33 30.15 12.66C30.82 11.25 32.25 10.53 32.25 6.7C30.85 8 29.45 8.44 28.07 8.02C26.72 5.96 24.85 5.04 22.48 5.28C18.92 5.64 17.62 9.13 18 13.65C12.51 16.43 8.21 11.64 5.99 8.02C5.25 10.87 4.54 14.29 5.99 18.07C6.96 20.59 9.29 22.72 12.99 24.46C9.24 26.49 6.16 27.28 3.75 26.82Z" fill="#FFFFFF" fill-opacity="1.000000" fill-rule="nonzero"/>
		<path id="path" d="M23.11 29C30.56 24.35 30.15 16.33 30.15 12.66C30.82 11.25 32.25 10.53 32.25 6.7C30.85 8 29.45 8.44 28.07 8.02C26.72 5.96 24.85 5.04 22.48 5.28C18.92 5.64 17.62 9.13 18 13.65C12.51 16.43 8.21 11.64 5.99 8.02C5.25 10.87 4.54 14.29 5.99 18.07C6.96 20.59 9.29 22.72 12.99 24.46C9.24 26.49 6.16 27.28 3.75 26.82C5.19 27.62 15.66 33.65 23.11 29Z" stroke="#FFFFFF" stroke-opacity="1.000000" stroke-width="2.250000" stroke-linejoin="round"/>
	</g>
</svg>
