<svg width="48.000000" height="48.000000" viewBox="0 0 48 48" fill="none" xmlns="http://www.w3.org/2000/svg" xmlns:xlink="http://www.w3.org/1999/xlink">
	<desc>
			Created with Pixso.
	</desc>
	<defs>
		<clipPath id="clip4_5">
			<rect id="Arrow right" width="48.000000" height="48.000000" fill="white" fill-opacity="0"/>
		</clipPath>
	</defs>
	<g clip-path="url(#clip4_5)">
		<path id="path" d="M6.02 25.48L6 25.5C5.16 25.5 4.5 24.84 4.5 24C4.5 23.16 5.16 22.5 6 22.5L6.02 22.52L6.02 25.48ZM41.98 22.52L42 22.5C42.83 22.5 43.5 23.16 43.5 24C43.5 24.84 42.83 25.5 42 25.5L41.98 25.48L41.98 22.52Z" fill="#F30000" fill-opacity="0" fill-rule="nonzero"/>
		<path id="path" d="M6 24L42 24" stroke="#FFFFFF" stroke-opacity="1.000000" stroke-width="3.000000" stroke-linejoin="round" stroke-linecap="round"/>
		<path id="path" d="M28.96 13.06L28.93 13.06C28.34 12.46 28.34 11.53 28.93 10.93C29.53 10.34 30.46 10.34 31.06 10.93L31.06 10.96L28.96 13.06ZM31.06 37.03L31.06 37.06C30.46 37.65 29.53 37.65 28.93 37.06C28.34 36.46 28.34 35.53 28.93 34.93L28.96 34.93L31.06 37.03Z" fill="#F30000" fill-opacity="0" fill-rule="nonzero"/>
		<path id="path" d="M30 12L42 24L30 36" stroke="#FFFFFF" stroke-opacity="1.000000" stroke-width="3.000000" stroke-linejoin="round" stroke-linecap="round"/>
	</g>
</svg>
