<svg width="50.000000" height="50.000000" viewBox="0 0 50 50" fill="none" xmlns="http://www.w3.org/2000/svg" xmlns:xlink="http://www.w3.org/1999/xlink">
	<desc>
			Created with Pixso.
	</desc>
	<defs>
		<clipPath id="clip4_8">
			<rect id="Left circle" width="50.000000" height="50.000000" fill="white" fill-opacity="0"/>
		</clipPath>
	</defs>
	<g clip-path="url(#clip4_8)">
		<path id="path" d="M25 48.28C37.85 48.28 48.28 37.85 48.28 25C48.28 12.14 37.85 1.71 25 1.71C12.14 1.71 1.71 12.14 1.71 25C1.71 37.85 12.14 48.28 25 48.28Z" fill="#F30000" fill-opacity="0" fill-rule="nonzero"/>
		<path id="path" d="M48.28 25C48.28 12.14 37.85 1.71 25 1.71C12.14 1.71 1.71 12.14 1.71 25C1.71 37.85 12.14 48.28 25 48.28C37.85 48.28 48.28 37.85 48.28 25Z" stroke="#FFFFFF" stroke-opacity="1.000000" stroke-width="3.000000" stroke-linejoin="round"/>
		<path id="path" d="M29.52 34.41L29.55 34.41C30.14 35.01 30.14 35.94 29.55 36.53C28.95 37.13 28.02 37.13 27.43 36.53L27.43 36.51L29.52 34.41ZM27.43 13.48L27.43 13.46C28.02 12.86 28.95 12.86 29.55 13.46C30.14 14.05 30.14 14.98 29.55 15.58L29.52 15.58L27.43 13.48Z" fill="#F30000" fill-opacity="0" fill-rule="nonzero"/>
		<path id="path" d="M28.49 35.47L18.01 25L28.49 14.52" stroke="#FFFFFF" stroke-opacity="1.000000" stroke-width="3.000000" stroke-linejoin="round" stroke-linecap="round"/>
	</g>
</svg>
