<svg width="50.000000" height="50.000000" viewBox="0 0 50 50" fill="none" xmlns="http://www.w3.org/2000/svg" xmlns:xlink="http://www.w3.org/1999/xlink">
	<desc>
			Created with Pixso.
	</desc>
	<defs>
		<clipPath id="clip28_2">
			<rect id="Left circle" width="50.000000" height="50.000000" transform="translate(50.000000 50.000000) rotate(180.000000)" fill="white" fill-opacity="0"/>
		</clipPath>
	</defs>
	<g clip-path="url(#clip28_2)">
		<path id="path" d="M25 1.71C12.14 1.71 1.71 12.14 1.71 25C1.71 37.85 12.14 48.28 25 48.28C37.85 48.28 48.28 37.85 48.28 25C48.28 12.14 37.85 1.71 25 1.71Z" fill="#F30000" fill-opacity="0" fill-rule="nonzero"/>
		<path id="path" d="M1.71 25C1.71 37.85 12.14 48.28 25 48.28C37.85 48.28 48.28 37.85 48.28 25C48.28 12.14 37.85 1.71 25 1.71C12.14 1.71 1.71 12.14 1.71 25Z" stroke="#FFFFFF" stroke-opacity="1.000000" stroke-width="3.000000" stroke-linejoin="round"/>
		<path id="path" d="M20.47 15.58L20.44 15.58C19.85 14.98 19.85 14.05 20.44 13.46C21.04 12.86 21.97 12.86 22.56 13.46L22.56 13.48L20.47 15.58ZM22.56 36.51L22.56 36.53C21.97 37.13 21.04 37.13 20.44 36.53C19.85 35.94 19.85 35.01 20.44 34.41L20.47 34.41L22.56 36.51Z" fill="#F30000" fill-opacity="0" fill-rule="nonzero"/>
		<path id="path" d="M21.5 14.52L31.98 25L21.5 35.47" stroke="#FFFFFF" stroke-opacity="1.000000" stroke-width="3.000000" stroke-linejoin="round" stroke-linecap="round"/>
	</g>
</svg>
