<svg width="27.031738" height="27.032837" viewBox="0 0 27.0317 27.0328" fill="none" xmlns="http://www.w3.org/2000/svg" xmlns:xlink="http://www.w3.org/1999/xlink">
	<desc>
			Created with Pixso.
	</desc>
	<defs/>
	<path id="path" d="M26.58 24.46L20.65 18.52C20.79 18.33 20.93 18.13 21.07 17.93C21.2 17.73 21.33 17.53 21.45 17.32C21.57 17.11 21.69 16.9 21.8 16.69C21.9 16.47 22.01 16.25 22.1 16.03C22.19 15.81 22.28 15.59 22.36 15.36C22.44 15.13 22.52 14.9 22.58 14.67C22.65 14.44 22.71 14.21 22.76 13.97C22.81 13.74 22.85 13.5 22.89 13.26C22.93 13.02 22.96 12.79 22.98 12.55C23 12.31 23.01 12.07 23.02 11.82C23.03 11.58 23.03 11.34 23.02 11.1C23.01 10.86 22.99 10.62 22.97 10.38C22.95 10.14 22.91 9.9 22.88 9.67C22.84 9.43 22.79 9.19 22.74 8.96C22.68 8.72 22.62 8.49 22.56 8.26C22.49 8.03 22.41 7.8 22.33 7.57C22.25 7.35 22.16 7.12 22.06 6.9C21.97 6.68 21.86 6.46 21.75 6.25C21.64 6.03 21.53 5.82 21.4 5.62C21.28 5.41 21.15 5.21 21.01 5.01C20.88 4.81 20.74 4.62 20.59 4.43C20.44 4.24 20.29 4.05 20.13 3.87C19.97 3.69 19.8 3.52 19.63 3.35C19.46 3.18 19.28 3.01 19.1 2.85C18.92 2.69 18.74 2.54 18.54 2.39C18.35 2.25 18.16 2.11 17.96 1.97C17.76 1.84 17.56 1.71 17.35 1.59C17.14 1.46 16.93 1.35 16.72 1.24C16.5 1.13 16.28 1.03 16.06 0.93C15.84 0.84 15.62 0.75 15.39 0.67C15.16 0.59 14.93 0.51 14.7 0.45C14.47 0.38 14.24 0.32 14 0.27C13.77 0.22 13.53 0.17 13.29 0.13C13.06 0.1 12.82 0.07 12.58 0.04C12.34 0.02 12.1 0.01 11.86 0C11.61 -0.01 11.37 -0.01 11.13 0C10.89 0.01 10.65 0.02 10.41 0.05C10.17 0.07 9.93 0.1 9.7 0.14C9.46 0.18 9.22 0.22 8.99 0.27C8.75 0.33 8.52 0.39 8.29 0.45C8.06 0.52 7.83 0.6 7.6 0.68C7.37 0.76 7.15 0.85 6.93 0.95C6.71 1.04 6.49 1.14 6.28 1.25C6.06 1.36 5.85 1.48 5.64 1.6C5.44 1.72 5.23 1.85 5.03 1.99C4.84 2.12 4.64 2.27 4.45 2.41C4.26 2.56 4.07 2.71 3.89 2.87C3.71 3.03 3.54 3.2 3.37 3.37C3.2 3.54 3.03 3.71 2.87 3.89C2.71 4.07 2.56 4.26 2.41 4.45C2.27 4.64 2.12 4.84 1.99 5.03C1.85 5.23 1.72 5.44 1.6 5.64C1.48 5.85 1.36 6.06 1.25 6.28C1.14 6.49 1.04 6.71 0.95 6.93C0.85 7.15 0.76 7.37 0.68 7.6C0.6 7.83 0.52 8.06 0.45 8.29C0.39 8.52 0.33 8.75 0.27 8.99C0.22 9.22 0.18 9.46 0.14 9.7C0.1 9.93 0.07 10.17 0.05 10.41C0.02 10.65 0.01 10.89 0 11.13C-0.01 11.37 -0.01 11.61 0 11.86C0.01 12.1 0.02 12.34 0.04 12.58C0.07 12.82 0.1 13.05 0.13 13.29C0.17 13.53 0.22 13.77 0.27 14C0.32 14.24 0.38 14.47 0.45 14.7C0.51 14.93 0.59 15.16 0.67 15.39C0.75 15.62 0.84 15.84 0.93 16.06C1.03 16.28 1.13 16.5 1.24 16.72C1.35 16.93 1.46 17.14 1.59 17.35C1.71 17.56 1.84 17.76 1.97 17.96C2.11 18.16 2.25 18.35 2.39 18.54C2.54 18.74 2.69 18.92 2.85 19.1C3.01 19.28 3.18 19.46 3.35 19.63C3.52 19.8 3.69 19.97 3.87 20.13C4.05 20.29 4.24 20.44 4.43 20.59C4.62 20.74 4.81 20.88 5.01 21.01C5.21 21.15 5.41 21.28 5.62 21.4C5.82 21.53 6.03 21.64 6.25 21.75C6.46 21.86 6.68 21.97 6.9 22.06C7.12 22.16 7.35 22.25 7.57 22.33C7.8 22.41 8.03 22.49 8.26 22.56C8.49 22.62 8.72 22.68 8.96 22.74C9.19 22.79 9.43 22.84 9.67 22.88C9.9 22.91 10.14 22.95 10.38 22.97C10.62 22.99 10.86 23.01 11.1 23.02C11.34 23.03 11.58 23.03 11.82 23.02C12.06 23.01 12.31 23 12.55 22.98C12.79 22.96 13.02 22.93 13.26 22.89C13.5 22.85 13.74 22.81 13.97 22.76C14.21 22.71 14.44 22.65 14.67 22.58C14.9 22.52 15.13 22.44 15.36 22.36C15.59 22.28 15.81 22.19 16.03 22.1C16.25 22.01 16.47 21.9 16.69 21.8C16.9 21.69 17.11 21.57 17.32 21.45C17.53 21.33 17.73 21.2 17.93 21.07C18.13 20.93 18.33 20.79 18.52 20.65L24.46 26.59C24.6 26.73 24.77 26.84 24.95 26.91C25.13 26.99 25.32 27.03 25.52 27.03C25.72 27.03 25.91 26.99 26.1 26.91C26.28 26.84 26.45 26.73 26.59 26.59C26.73 26.45 26.84 26.28 26.91 26.1C26.99 25.92 27.03 25.72 27.03 25.53C27.03 25.33 26.99 25.13 26.91 24.95C26.84 24.77 26.72 24.6 26.58 24.46ZM3.02 11.52C3.02 11.24 3.03 10.96 3.06 10.69C3.09 10.41 3.13 10.14 3.18 9.86C3.24 9.59 3.31 9.32 3.39 9.05C3.47 8.79 3.56 8.52 3.67 8.27C3.77 8.01 3.89 7.76 4.02 7.51C4.16 7.27 4.3 7.03 4.45 6.8C4.61 6.57 4.77 6.34 4.95 6.13C5.13 5.91 5.31 5.71 5.51 5.51C5.71 5.31 5.91 5.13 6.13 4.95C6.34 4.77 6.57 4.61 6.8 4.45C7.03 4.3 7.27 4.16 7.51 4.02C7.76 3.89 8.01 3.77 8.27 3.67C8.52 3.56 8.79 3.47 9.05 3.39C9.32 3.31 9.59 3.24 9.86 3.18C10.14 3.13 10.41 3.09 10.69 3.06C10.96 3.03 11.24 3.02 11.52 3.02C11.8 3.02 12.08 3.03 12.35 3.06C12.63 3.09 12.91 3.13 13.18 3.18C13.45 3.24 13.72 3.31 13.99 3.39C14.25 3.47 14.52 3.56 14.77 3.67C15.03 3.77 15.28 3.89 15.53 4.02C15.77 4.16 16.01 4.3 16.24 4.45C16.47 4.61 16.7 4.77 16.91 4.95C17.13 5.13 17.33 5.31 17.53 5.51C17.73 5.71 17.91 5.91 18.09 6.13C18.27 6.34 18.43 6.57 18.59 6.8C18.74 7.03 18.89 7.27 19.02 7.51C19.15 7.76 19.27 8.01 19.37 8.27C19.48 8.52 19.57 8.79 19.65 9.05C19.74 9.32 19.8 9.59 19.86 9.86C19.91 10.14 19.95 10.41 19.98 10.69C20.01 10.96 20.02 11.24 20.02 11.52C20.02 11.8 20.01 12.08 19.98 12.35C19.95 12.63 19.91 12.91 19.86 13.18C19.8 13.45 19.74 13.72 19.65 13.99C19.57 14.25 19.48 14.52 19.37 14.77C19.27 15.03 19.15 15.28 19.02 15.53C18.89 15.77 18.74 16.01 18.59 16.24C18.43 16.47 18.27 16.7 18.09 16.91C17.91 17.13 17.73 17.33 17.53 17.53C17.33 17.73 17.13 17.91 16.91 18.09C16.7 18.27 16.47 18.43 16.24 18.59C16.01 18.74 15.77 18.89 15.53 19.02C15.28 19.15 15.03 19.27 14.77 19.37C14.52 19.48 14.25 19.57 13.99 19.65C13.72 19.74 13.45 19.8 13.18 19.86C12.91 19.91 12.63 19.95 12.35 19.98C12.08 20.01 11.8 20.02 11.52 20.02C11.24 20.02 10.96 20.01 10.69 19.98C10.41 19.95 10.14 19.91 9.86 19.86C9.59 19.8 9.32 19.73 9.05 19.65C8.79 19.57 8.53 19.48 8.27 19.37C8.01 19.26 7.76 19.15 7.52 19.01C7.27 18.88 7.03 18.74 6.8 18.59C6.57 18.43 6.35 18.26 6.13 18.09C5.91 17.91 5.71 17.72 5.51 17.53C5.32 17.33 5.13 17.13 4.95 16.91C4.78 16.7 4.61 16.47 4.46 16.24C4.3 16.01 4.16 15.77 4.03 15.53C3.9 15.28 3.78 15.03 3.67 14.77C3.56 14.51 3.47 14.25 3.39 13.99C3.31 13.72 3.24 13.45 3.18 13.18C3.13 12.91 3.09 12.63 3.06 12.35C3.03 12.08 3.02 11.8 3.02 11.52Z" fill="#000000" fill-opacity="1.000000" fill-rule="nonzero"/>
</svg>
