<svg width="93.467773" height="40.564453" viewBox="0 0 93.4678 40.5645" fill="none" xmlns="http://www.w3.org/2000/svg" xmlns:xlink="http://www.w3.org/1999/xlink">
	<desc>
			Created with Pixso.
	</desc>
	<defs/>
	<path id="ORGANIC JUICY CO." d="M10.26 0.33Q9.15 0 7.94 0Q6.69 0 5.55 0.35Q5.34 0.42 5.14 0.49Q4.45 0.75 3.84 1.13Q3.27 1.49 2.77 1.95Q1.94 2.7 1.36 3.6Q0.99 4.17 0.71 4.81Q0.46 5.39 0.29 5.99Q0 7.09 0 8.27Q0 9.37 0.26 10.41Q0.43 11.09 0.71 11.74Q1.04 12.48 1.49 13.13Q2.03 13.93 2.77 14.6Q3.22 15.02 3.73 15.34Q4.39 15.77 5.14 16.05Q5.36 16.14 5.6 16.21Q6.72 16.56 7.94 16.56Q9.1 16.56 10.17 16.25Q10.47 16.17 10.76 16.05Q11.63 15.73 12.37 15.21Q12.77 14.94 13.13 14.6Q13.93 13.87 14.51 13Q14.91 12.39 15.2 11.73Q15.52 11.01 15.7 10.25Q15.93 9.29 15.93 8.27Q15.93 7.17 15.67 6.15Q15.49 5.47 15.21 4.82Q14.96 4.26 14.63 3.74Q14.02 2.76 13.13 1.95Q12.87 1.7 12.58 1.48Q11.77 0.87 10.78 0.5Q10.52 0.4 10.26 0.33ZM41.47 16.21Q42.79 15.97 43.82 15.53L43.82 8.02L39.75 8.02L39.75 11.92Q39.62 11.97 39.49 12.01Q39.25 12.08 39 12.13Q38.61 12.2 38.19 12.2Q37.02 12.2 36.15 11.68Q35.78 11.46 35.46 11.15Q35.13 10.82 34.9 10.43Q34.4 9.58 34.4 8.44Q34.4 7.25 34.91 6.33Q35.16 5.87 35.55 5.48Q35.95 5.08 36.43 4.81Q37.32 4.32 38.47 4.32Q39.28 4.32 40.11 4.58Q40.93 4.83 41.91 5.39L43.58 1.62Q43.47 1.55 43.37 1.48Q42.38 0.86 41.22 0.51Q40.84 0.4 40.45 0.32Q39.53 0.12 38.57 0.12Q36.35 0.12 34.6 1.03Q33.53 1.59 32.64 2.48Q31.8 3.33 31.25 4.34Q30.29 6.14 30.29 8.46Q30.29 11.29 31.61 13.22Q32.01 13.8 32.54 14.3Q32.81 14.56 33.1 14.79Q35.26 16.45 38.7 16.45Q40.15 16.45 41.47 16.21ZM92.18 16.34Q92.69 16.28 93.15 16.14L93.46 11.37Q92.86 11.68 92.25 11.84Q91.79 11.96 91.33 11.99Q91.17 12 91.01 12Q89.86 12 88.97 11.53Q88.52 11.29 88.13 10.93Q87.57 10.41 87.29 9.77Q86.97 9.08 86.97 8.25Q86.97 7.37 87.32 6.66Q87.61 6.07 88.14 5.59Q88.36 5.4 88.6 5.24Q89.65 4.55 91.15 4.55Q91.66 4.55 92.2 4.67Q92.74 4.79 93.3 5.03L93.09 0.37Q92.57 0.25 92.1 0.2Q91.63 0.15 91.2 0.15Q88.73 0.15 86.84 1.19Q85.91 1.71 85.13 2.48Q84.21 3.38 83.64 4.47Q82.74 6.2 82.74 8.4Q82.74 10.81 83.79 12.6Q84.3 13.46 85.04 14.19Q85.6 14.72 86.24 15.13Q88.24 16.41 91.06 16.41Q91.67 16.41 92.18 16.34ZM17.86 0.41L17.86 16.14L21.93 16.14L21.93 9.41L25.19 16.14L29.65 16.14L26.2 9.23Q26.78 9.03 27.24 8.67Q27.69 8.32 28.02 7.81Q28.09 7.7 28.16 7.58Q28.69 6.63 28.69 5.39Q28.69 3.69 27.89 2.56Q27.54 2.07 27.05 1.69Q25.41 0.41 22.31 0.41L17.86 0.41ZM50.81 0.41L45.31 16.14L49.55 16.14L50.15 14.38L55.71 14.38L56.28 16.14L60.6 16.14L55.4 0.41L50.81 0.41ZM62.01 0.41L62.01 16.14L66.08 16.14L66.08 9.32L71.86 16.14L73.71 16.14L73.71 0.41L69.65 0.41L69.65 7.3L63.79 0.41L62.01 0.41ZM76.54 16.14L80.62 16.14L80.62 0.41L76.54 0.41L76.54 16.14ZM22.33 7.8L21.93 7.8L21.93 3.86L22.44 3.86Q23.47 3.86 24.02 4.37Q24.1 4.44 24.17 4.53Q24.57 5.02 24.57 5.85Q24.57 6.62 24.2 7.1Q24.11 7.21 24 7.31Q23.42 7.8 22.33 7.8ZM6.41 4.69Q7.11 4.37 7.97 4.37Q8.81 4.37 9.51 4.69Q10.13 4.97 10.63 5.5Q11.06 5.95 11.32 6.49Q11.7 7.29 11.7 8.27Q11.7 9.25 11.32 10.05Q11.06 10.58 10.63 11.03Q10.13 11.55 9.53 11.83Q8.82 12.16 7.97 12.16Q7.08 12.16 6.35 11.81Q5.77 11.53 5.3 11.04Q4.89 10.61 4.64 10.11Q4.23 9.29 4.23 8.27Q4.23 7.25 4.63 6.44Q4.89 5.92 5.3 5.49Q5.8 4.97 6.41 4.69ZM54.52 10.45L51.29 10.45L52.9 5.14L54.52 10.45ZM82 24.33Q80.89 24 79.68 24Q78.43 24 77.29 24.35Q77.08 24.42 76.87 24.49Q76.19 24.75 75.58 25.13Q75.01 25.49 74.5 25.95Q73.68 26.7 73.09 27.6Q72.72 28.17 72.45 28.81Q72.19 29.39 72.03 29.99Q71.73 31.09 71.73 32.27Q71.73 33.37 71.99 34.41Q72.17 35.09 72.45 35.74Q72.78 36.48 73.22 37.13Q73.77 37.93 74.5 38.6Q74.96 39.02 75.46 39.34Q76.12 39.77 76.87 40.05Q77.1 40.14 77.33 40.21Q78.45 40.56 79.68 40.56Q80.84 40.56 81.9 40.25Q82.2 40.17 82.5 40.05Q83.37 39.73 84.11 39.21Q84.51 38.93 84.87 38.6Q85.67 37.87 86.24 37Q86.64 36.39 86.94 35.73Q87.25 35.01 87.43 34.25Q87.66 33.29 87.66 32.27Q87.66 31.17 87.4 30.15Q87.23 29.47 86.94 28.82Q86.69 28.26 86.37 27.74Q85.76 26.76 84.87 25.95Q84.6 25.7 84.32 25.48Q83.51 24.87 82.52 24.5Q82.26 24.4 82 24.33ZM38.17 40.34Q38.68 40.28 39.14 40.14L39.45 35.37Q38.85 35.68 38.24 35.84Q37.78 35.96 37.32 35.99Q37.16 36 37 36Q35.85 36 34.96 35.53Q34.5 35.29 34.12 34.93Q33.56 34.41 33.27 33.77Q32.96 33.08 32.96 32.25Q32.96 31.37 33.31 30.66Q33.6 30.07 34.13 29.59Q34.35 29.4 34.59 29.24Q35.64 28.55 37.14 28.55Q37.65 28.55 38.19 28.67Q38.73 28.79 39.29 29.03L39.08 24.37Q38.56 24.25 38.09 24.2Q37.61 24.15 37.18 24.15Q34.72 24.15 32.83 25.19Q31.9 25.71 31.12 26.48Q30.2 27.38 29.63 28.47Q28.73 30.2 28.73 32.4Q28.73 34.81 29.78 36.6Q30.28 37.46 31.03 38.19Q31.59 38.72 32.23 39.13Q34.23 40.41 37.04 40.41Q37.66 40.41 38.17 40.34ZM68.95 40.34Q69.46 40.28 69.93 40.14L70.24 35.37Q69.64 35.68 69.02 35.84Q68.57 35.96 68.11 35.99Q67.95 36 67.79 36Q66.64 36 65.74 35.53Q65.29 35.29 64.9 34.93Q64.35 34.41 64.06 33.77Q63.75 33.08 63.75 32.25Q63.75 31.37 64.1 30.66Q64.39 30.07 64.92 29.59Q65.13 29.4 65.38 29.24Q66.43 28.55 67.93 28.55Q68.43 28.55 68.98 28.67Q69.52 28.79 70.08 29.03L69.86 24.37Q69.35 24.25 68.87 24.2Q68.4 24.15 67.97 24.15Q65.5 24.15 63.62 25.19Q62.69 25.71 61.9 26.48Q60.98 27.38 60.42 28.47Q59.52 30.2 59.52 32.4Q59.52 34.81 60.57 36.6Q61.07 37.46 61.82 38.19Q62.37 38.72 63.01 39.13Q65.02 40.41 67.83 40.41Q68.44 40.41 68.95 40.34ZM0.02 35.88L0.03 40.1Q0.66 40.15 1.05 40.17Q1.45 40.18 1.82 40.18Q4.57 40.18 5.62 39.13Q6.67 38.07 6.67 35.23L6.67 24.41L2.57 24.41L2.57 33.17Q2.57 34.94 2.14 35.42Q1.71 35.9 0.58 35.9Q0.45 35.9 0.31 35.89Q0.18 35.89 0.02 35.88ZM15.69 24.41L15.69 33.93Q15.69 35.24 15.41 35.78Q15.29 36.01 15.1 36.14Q14.85 36.32 14.48 36.32Q14.09 36.32 13.83 36.13Q13.66 36 13.55 35.79Q13.27 35.26 13.27 33.93L13.27 24.41L9.18 24.41L9.18 33.93Q9.18 36.1 9.5 37.22Q9.74 38.07 10.23 38.73Q10.38 38.94 10.57 39.13Q11.2 39.81 12.23 40.18Q13.26 40.56 14.48 40.56Q15.69 40.56 16.72 40.18Q17.75 39.81 18.4 39.13Q18.58 38.94 18.73 38.73Q19.21 38.08 19.45 37.25Q19.76 36.14 19.76 33.93L19.76 24.41L15.69 24.41ZM22.53 40.14L26.6 40.14L26.6 24.41L22.53 24.41L22.53 40.14ZM44.4 33.08L44.4 40.14L48.5 40.14L48.5 33.28L53.07 24.41L48.5 24.41L46.53 29.14L44.66 24.41L40.14 24.41L44.4 33.08ZM78.14 28.69Q78.85 28.37 79.7 28.37Q80.55 28.37 81.25 28.69Q81.86 28.97 82.37 29.5Q82.8 29.95 83.06 30.49Q83.44 31.29 83.44 32.27Q83.44 33.25 83.05 34.05Q82.8 34.58 82.37 35.03Q81.87 35.55 81.26 35.83Q80.56 36.16 79.7 36.16Q78.81 36.16 78.09 35.81Q77.51 35.53 77.03 35.04Q76.63 34.61 76.38 34.11Q75.96 33.29 75.96 32.27Q75.96 31.25 76.37 30.44Q76.62 29.92 77.04 29.49Q77.54 28.97 78.14 28.69ZM88.64 36.05L88.64 40.14L92.36 40.14L92.36 36.05L88.64 36.05Z" fill="#FF4747" fill-opacity="1.000000" fill-rule="evenodd"/>
</svg>
